<?xml version="1.0" standalone="no"?>
<!DOCTYPE svg PUBLIC "-//W3C//DTD SVG 20010904//EN"
 "http://www.w3.org/TR/2001/REC-SVG-20010904/DTD/svg10.dtd">
<svg version="1.0" xmlns="http://www.w3.org/2000/svg"
 width="1000.000000pt" height="1000.000000pt" viewBox="0 0 1000.000000 1000.000000"
 preserveAspectRatio="xMidYMid meet">

<g transform="translate(0.000000,1000.000000) scale(0.100000,-0.100000)"
fill="#000000" stroke="none">
<path d="M6328 8433 c28 -2 76 -2 105 0 28 2 5 3 -53 3 -58 0 -81 -1 -52 -3z"/>
<path d="M3037 8414 c-4 -4 -7 -211 -7 -461 l0 -453 155 0 155 0 2 58 c1 31 2
98 2 147 l1 90 137 3 137 3 3 -148 3 -148 153 -3 152 -3 -2 458 -3 458 -150 0
-150 0 -5 -145 -5 -145 -135 0 -135 0 -5 145 -5 145 -146 3 c-80 1 -148 -1
-152 -4z"/>
<path d="M4060 8265 l0 -155 135 0 135 0 0 -305 0 -305 155 0 155 0 0 305 0
305 135 0 135 0 0 149 c0 127 -2 150 -16 155 -9 3 -200 6 -425 6 l-409 0 0
-155z"/>
<path d="M5063 8413 c-10 -4 -13 -105 -13 -459 l0 -454 150 0 150 0 0 210 c0
116 3 210 8 210 4 0 49 -65 100 -145 52 -80 99 -145 105 -145 7 0 55 67 107
148 l95 147 6 -210 c3 -115 6 -211 7 -212 1 -2 69 -3 151 -3 146 0 149 0 155
23 3 12 6 216 6 453 l0 432 -22 6 c-45 12 -293 7 -310 -6 -8 -7 -50 -70 -92
-140 -42 -69 -83 -129 -90 -131 -22 -9 -38 10 -116 138 -40 66 -80 126 -88
133 -16 12 -281 17 -309 5z"/>
<path d="M6230 7983 c0 -241 3 -448 6 -460 l6 -23 369 0 369 0 0 160 0 160
-209 0 c-157 0 -212 3 -218 13 -4 6 -8 136 -8 287 0 151 -4 281 -8 288 -6 9
-49 12 -158 12 l-149 0 0 -437z"/>
<path d="M2590 7053 c-1 -53 432 -4890 438 -4902 7 -11 1909 -548 1962 -553 8
-1 245 62 525 140 281 78 721 200 979 271 258 72 473 136 477 143 5 7 9 22 9
34 0 12 97 1106 215 2432 118 1327 215 2421 215 2432 0 20 -2 20 -2410 20
-2289 0 -2410 -1 -2410 -17z m3927 -1030 c-3 -27 -16 -156 -27 -288 -12 -132
-23 -251 -26 -264 l-5 -24 -1156 7 -1156 7 6 -58 c3 -32 16 -172 28 -310 l23
-253 1103 0 1104 0 -6 -57 c-4 -32 -41 -449 -84 -926 -43 -477 -82 -872 -87
-876 -5 -5 -286 -86 -624 -179 l-615 -171 -620 173 c-526 147 -620 176 -622
192 -13 97 -83 921 -79 931 4 10 65 13 305 13 277 0 300 -1 305 -17 2 -10 12
-119 22 -243 10 -124 18 -226 19 -227 0 -1 152 -43 336 -92 l335 -91 333 90
c183 49 335 90 337 92 1 2 17 159 33 348 17 190 33 364 36 388 l6 42 -1050 0
c-834 0 -1051 3 -1051 13 0 6 -36 408 -80 892 -44 484 -80 892 -80 908 l0 27
1521 0 1522 0 -6 -47z"/>
</g>
</svg>
